<?xml version="1.0" standalone="no"?>
<!DOCTYPE svg PUBLIC "-//W3C//DTD SVG 20010904//EN"
 "http://www.w3.org/TR/2001/REC-SVG-20010904/DTD/svg10.dtd">
<svg version="1.0" xmlns="http://www.w3.org/2000/svg"
 width="512.000000pt" height="512.000000pt" viewBox="0 0 512.000000 512.000000"
 preserveAspectRatio="xMidYMid meet">
<metadata>
Created by potrace 1.14, written by Peter Selinger 2001-2017
</metadata>
<g transform="translate(0.000000,512.000000) scale(0.100000,-0.100000)"
fill="#000000" stroke="none">
<path d="M2428 5055 c-2 -1 -42 -5 -90 -9 -456 -32 -961 -232 -1323 -525 -110
-89 -113 -92 -204 -181 -351 -347 -584 -764 -687 -1230 -21 -94 -24 -111 -30
-155 -2 -22 -7 -51 -10 -64 -24 -112 -24 -551 1 -671 2 -13 7 -42 10 -65 13
-87 59 -275 92 -375 267 -807 926 -1424 1753 -1640 25 -7 56 -14 70 -17 14 -2
44 -8 67 -14 215 -47 553 -57 823 -24 143 18 407 84 535 135 272 108 475 224
685 391 333 265 601 628 761 1027 32 80 103 305 112 357 3 17 8 41 11 55 58
263 67 592 26 879 -92 642 -446 1233 -980 1634 -62 47 -125 91 -139 99 -14 7
-44 25 -66 39 -189 125 -575 273 -815 313 -19 3 -46 8 -60 11 -27 5 -99 15
-165 21 -49 5 -373 13 -377 9z"/>
</g>
</svg>
